<?xml version="1.0" encoding="UTF-8"?>
<svg id="_レイヤー_1" xmlns="http://www.w3.org/2000/svg" version="1.1" xmlns:xlink="http://www.w3.org/1999/xlink" viewBox="0 0 1428 300">
  <!-- Generator: Adobe Illustrator 30.2.1, SVG Export Plug-In . SVG Version: 2.1.1 Build 1)  -->
  <defs>
    <clipPath id="clippath">
      <rect x="13" y="73" width="233.57" height="153.11" style="fill: none;"/>
    </clipPath>
    <clipPath id="clippath-1">
      <rect x="1181" y="84" width="233.57" height="153.11" style="fill: none;"/>
    </clipPath>
  </defs>
  <g style="display: none;">
    <path d="M209.16,116.26c4.64,27.28,7.03,42.06,8.16,51.48h.56c1.55-10.13,2.95-21.94,9.14-51.48h25.32c5.63,28.97,7.59,41.78,8.58,51.34h.42c1.13-7.74,3.09-22.5,8.86-51.34h26.86l-21.1,73.7h-29.68c-4.08-22.22-6.19-34.88-7.59-45.71h-.42c-.99,9.28-3.8,24.05-8.3,45.71h-29.54l-20.39-73.7h29.12Z"/>
    <path d="M369.65,168.16c0,8.3.42,19.27.85,21.8h-25.32c-.56-1.55-.99-5.07-1.13-6.75-3.51,4.5-8.86,8.58-20.82,8.58-16.46,0-25.46-10.41-25.46-23.49,0-17.44,13.93-24.9,36.43-24.9h9v-4.08c0-4.78-1.69-8.16-8.3-8.16-6.19,0-7.73,2.81-8.44,7.59h-25.32c.99-12.38,8.3-24.47,34.46-24.33,24.19.14,34.04,9.43,34.04,27.14v26.58h0ZM343.2,157.19h-6.05c-9.43,0-12.52,3.37-12.52,8.86,0,4.22,2.53,7.73,8.02,7.73,9.29,0,10.55-6.33,10.55-14.35v-2.25h0Z"/>
    <path d="M377.11,116.26h10.55v-19.13h27.14v19.13h12.94v18.43h-12.94v31.64c0,4.64,1.41,6.33,7.17,6.33,1.13,0,2.39,0,3.94-.14v16.88c-4.36,1.41-11.53,1.69-16.03,1.69-17.44,0-22.36-8.44-22.36-22.36v-34.04h-10.41v-18.43h0Z"/>
    <path d="M506.92,164.37c-2.25,13.36-10.83,27.42-36.29,27.42s-37.27-17.02-37.27-37.98c0-22.22,13.79-39.38,38.26-39.38,27.85,0,34.88,18.71,35.3,27.71h-26.16c-.7-5.21-2.95-9.29-9-9.29-6.89,0-10.41,6.47-10.41,19.97,0,15.19,3.8,20.82,10.27,20.82,5.63,0,8.02-4.36,9.29-9.29h26.02,0Z"/>
    <path d="M544.48,88.13v35.86c3.66-4.5,9.85-9.57,20.82-9.57,15.19,0,24.33,9.57,24.33,27.85v47.68h-27.28v-44.44c0-7.31-2.39-10.97-8.44-10.97-8.3,0-9.43,6.47-9.43,15.47v39.94h-27.42v-101.83h27.42Z"/>
    <path d="M604.12,107.12v-18.99h27.42v18.99h-27.42ZM604.12,116.26h27.42v73.7h-27.42s0-73.7,0-73.7Z"/>
    <path d="M646.31,135.39c0-6.47,0-13.36-.14-19.13h26.72c.42,1.83.7,5.91.85,8.16,2.81-4.22,8.86-9.99,20.96-9.99,14.77,0,24.05,9.99,24.05,27.99v47.54h-27.28v-44.3c0-7.17-2.11-11.11-8.44-11.11-5.77,0-9.28,2.95-9.28,13.36v42.06h-27.42v-54.58h-.01Z"/>
    <path d="M806.66,178.99c0,24.05-8.44,39.38-39.52,39.38s-34.88-15.89-35.58-24.19h27c.99,3.94,3.37,6.61,9.57,6.61,9.57,0,11.53-5.63,11.53-17.73v-3.94c-3.8,5.63-9.43,9.29-19.83,9.29-19.41,0-29.96-15.75-29.96-35.3,0-22.92,13.22-38.68,31.64-38.68,11.81,0,17.02,5.21,18.15,8.58.14-1.83.56-5.49.7-6.75h26.58c-.14,5.63-.28,12.52-.28,21.1v41.63h0ZM769.1,169.43c9.29,0,11.39-6.89,11.39-17.87,0-11.53-1.27-18.29-10.97-18.29-6.33,0-11.53,5.07-11.53,18.57,0,11.11,4.22,17.58,11.11,17.58h0Z"/>
  </g>
  <g>
    <g>
      <path d="M253.75,91.88c7.29,42.87,11.05,66.08,12.82,80.88h.88c2.43-15.91,4.64-34.47,14.36-80.88h39.78c8.84,45.52,11.93,65.64,13.48,80.66h.66c1.77-12.16,4.86-35.36,13.92-80.66h42.21l-33.15,115.8h-46.63c-6.41-34.92-9.72-54.81-11.93-71.82h-.66c-1.55,14.58-5.97,37.79-13.04,71.82h-46.41l-32.04-115.8h45.75Z"/>
      <path d="M505.91,173.43c0,13.04.66,30.28,1.33,34.25h-39.78c-.88-2.43-1.55-7.96-1.77-10.61-5.52,7.07-13.92,13.48-32.71,13.48-25.86,0-40-16.35-40-36.91,0-27.4,21.88-39.12,57.24-39.12h14.14v-6.41c0-7.51-2.65-12.82-13.04-12.82-9.72,0-12.15,4.42-13.26,11.93h-39.78c1.55-19.45,13.04-38.45,54.14-38.23,38.01.22,53.48,14.81,53.48,42.65v41.77ZM464.36,156.19h-9.5c-14.81,0-19.67,5.3-19.67,13.92,0,6.63,3.98,12.15,12.6,12.15,14.59,0,16.57-9.94,16.57-22.54v-3.54Z"/>
      <path d="M517.63,91.88h16.57v-30.06h42.65v30.06h20.33v28.95h-20.33v49.72c0,7.29,2.21,9.94,11.27,9.94,1.77,0,3.76,0,6.19-.22v26.52c-6.85,2.21-18.12,2.65-25.19,2.65-27.4,0-35.14-13.26-35.14-35.14v-53.48h-16.35v-28.95Z"/>
      <path d="M721.61,167.46c-3.54,20.99-17.02,43.09-57.02,43.09s-58.56-26.74-58.56-59.67c0-34.92,21.66-61.88,60.11-61.88,43.76,0,54.81,29.39,55.47,43.54h-41.1c-1.1-8.18-4.64-14.59-14.14-14.59-10.83,0-16.35,10.17-16.35,31.38,0,23.87,5.97,32.71,16.13,32.71,8.84,0,12.6-6.85,14.59-14.59h40.88Z"/>
      <path d="M780.61,47.68v56.35c5.75-7.07,15.47-15.03,32.71-15.03,23.87,0,38.23,15.03,38.23,43.76v74.92h-42.87v-69.83c0-11.49-3.76-17.24-13.26-17.24-13.04,0-14.81,10.17-14.81,24.31v62.76h-43.09V47.68h43.09Z"/>
      <path d="M874.32,77.51v-29.83h43.09v29.83h-43.09ZM874.32,91.88h43.09v115.8h-43.09v-115.8Z"/>
      <path d="M940.62,121.93c0-10.17,0-20.99-.22-30.06h41.99c.66,2.87,1.1,9.28,1.33,12.82,4.42-6.63,13.92-15.69,32.93-15.69,23.2,0,37.79,15.69,37.79,43.98v74.7h-42.87v-69.61c0-11.27-3.32-17.46-13.26-17.46-9.06,0-14.58,4.64-14.58,20.99v66.08h-43.09v-85.75Z"/>
      <path d="M1192.55,190.44c0,37.79-13.26,61.88-62.1,61.88s-54.81-24.97-55.91-38.01h42.43c1.55,6.19,5.3,10.39,15.03,10.39,15.03,0,18.12-8.84,18.12-27.85v-6.19c-5.97,8.84-14.81,14.59-31.16,14.59-30.5,0-47.07-24.75-47.07-55.47,0-36.02,20.77-60.77,49.72-60.77,18.56,0,26.74,8.18,28.51,13.48.22-2.87.88-8.62,1.1-10.61h41.77c-.22,8.84-.44,19.67-.44,33.15v65.41ZM1133.55,175.41c14.59,0,17.9-10.83,17.9-28.07,0-18.12-1.99-28.73-17.24-28.73-9.94,0-18.12,7.96-18.12,29.17,0,17.46,6.63,27.62,17.46,27.62Z"/>
    </g>
    <g id="tiger.psd">
      <g style="clip-path: url(#clippath);">
        <image id="Layer_8__x2B__Color_Balance_1__x2B__Levels_1__x2B__Curves_1__x2B__Hue_x2F_Saturation_1" width="1622" height="1007" transform="translate(20.25 80.94) scale(.14)" xlink:href="logo_tora-1.png"/>
        <image id="Layer_2" width="128" height="16" transform="translate(37.08 101.73) scale(.14)" xlink:href="logo_tora-2.png"/>
      </g>
    </g>
    <g id="tiger.psd1" data-name="tiger.psd">
      <g style="clip-path: url(#clippath-1);">
        <image id="Layer_8__x2B__Color_Balance_1__x2B__Levels_1__x2B__Curves_1__x2B__Hue_x2F_Saturation_11" data-name="Layer_8__x2B__Color_Balance_1__x2B__Levels_1__x2B__Curves_1__x2B__Hue_x2F_Saturation_1" width="1622" height="1007" transform="translate(1188.25 91.94) scale(.14)" xlink:href="logo_tora-3.png"/>
        <image id="Layer_21" data-name="Layer_2" width="128" height="16" transform="translate(1205.08 112.73) scale(.14)" xlink:href="logo_tora-4.png"/>
      </g>
    </g>
  </g>
</svg>