<?xml version="1.0" encoding="UTF-8"?>
<svg id="_レイヤー_1" data-name="レイヤー_1" xmlns="http://www.w3.org/2000/svg" version="1.1" viewBox="0 0 1000 300">
  <!-- Generator: Adobe Illustrator 30.2.1, SVG Export Plug-In . SVG Version: 2.1.1 Build 1)  -->
  <path d="M52.92,111.13c7.29,42.87,11.05,66.08,12.82,80.88h.88c2.43-15.91,4.64-34.47,14.36-80.88h39.78c8.84,45.52,11.93,65.64,13.48,80.66h.66c1.77-12.16,4.86-35.36,13.92-80.66h42.21l-33.15,115.8h-46.63c-6.41-34.92-9.72-54.81-11.93-71.82h-.66c-1.55,14.58-5.97,37.79-13.04,71.82h-46.41L7.17,111.13h45.75Z"/>
  <path d="M305.08,192.67c0,13.04.66,30.28,1.33,34.25h-39.78c-.88-2.43-1.55-7.96-1.77-10.61-5.52,7.07-13.92,13.48-32.71,13.48-25.86,0-40-16.35-40-36.91,0-27.4,21.88-39.12,57.24-39.12h14.14v-6.41c0-7.51-2.65-12.82-13.04-12.82-9.72,0-12.15,4.42-13.26,11.93h-39.78c1.55-19.45,13.04-38.45,54.14-38.23,38.01.22,53.48,14.81,53.48,42.65v41.77ZM263.53,175.44h-9.5c-14.81,0-19.67,5.3-19.67,13.92,0,6.63,3.98,12.15,12.6,12.15,14.59,0,16.57-9.94,16.57-22.54v-3.54Z"/>
  <path d="M316.8,111.13h16.57v-30.06h42.65v30.06h20.33v28.95h-20.33v49.72c0,7.29,2.21,9.94,11.27,9.94,1.77,0,3.76,0,6.19-.22v26.52c-6.85,2.21-18.12,2.65-25.19,2.65-27.4,0-35.14-13.26-35.14-35.14v-53.48h-16.35v-28.95Z"/>
  <path d="M520.77,186.71c-3.54,20.99-17.02,43.09-57.02,43.09s-58.56-26.74-58.56-59.67c0-34.92,21.66-61.88,60.11-61.88,43.76,0,54.81,29.39,55.47,43.54h-41.1c-1.1-8.18-4.64-14.59-14.14-14.59-10.83,0-16.35,10.17-16.35,31.38,0,23.87,5.97,32.71,16.13,32.71,8.84,0,12.6-6.85,14.59-14.59h40.88Z"/>
  <path d="M579.78,66.93v56.35c5.75-7.07,15.47-15.03,32.71-15.03,23.87,0,38.23,15.03,38.23,43.76v74.92h-42.87v-69.83c0-11.49-3.76-17.24-13.26-17.24-13.04,0-14.81,10.17-14.81,24.31v62.76h-43.09V66.93h43.09Z"/>
  <path d="M673.48,96.76v-29.83h43.09v29.83h-43.09ZM673.48,111.13h43.09v115.8h-43.09v-115.8Z"/>
  <path d="M739.78,141.18c0-10.17,0-20.99-.22-30.06h41.99c.66,2.87,1.1,9.28,1.33,12.82,4.42-6.63,13.92-15.69,32.93-15.69,23.2,0,37.79,15.69,37.79,43.98v74.7h-42.87v-69.61c0-11.27-3.32-17.46-13.26-17.46-9.06,0-14.58,4.64-14.58,20.99v66.08h-43.09v-85.75Z"/>
  <path d="M991.72,209.69c0,37.79-13.26,61.88-62.1,61.88s-54.81-24.97-55.91-38.01h42.43c1.55,6.19,5.3,10.39,15.03,10.39,15.03,0,18.12-8.84,18.12-27.85v-6.19c-5.97,8.84-14.81,14.59-31.16,14.59-30.5,0-47.07-24.75-47.07-55.47,0-36.02,20.77-60.77,49.72-60.77,18.56,0,26.74,8.18,28.51,13.48.22-2.87.88-8.62,1.1-10.61h41.77c-.22,8.84-.44,19.67-.44,33.15v65.41ZM932.71,194.66c14.59,0,17.9-10.83,17.9-28.07,0-18.12-1.99-28.73-17.24-28.73-9.94,0-18.12,7.96-18.12,29.17,0,17.46,6.63,27.62,17.46,27.62Z"/>
</svg>