<?xml version="1.0" encoding="UTF-8"?>
<svg id="_レイヤー_1" xmlns="http://www.w3.org/2000/svg" version="1.1" xmlns:xlink="http://www.w3.org/1999/xlink" viewBox="0 0 1000 138">
  <!-- Generator: Adobe Illustrator 30.2.1, SVG Export Plug-In . SVG Version: 2.1.1 Build 1)  -->
  <defs>
    <clipPath id="clippath">
      <rect y="6.05" width="201.74" height="132.24" style="fill: none;"/>
    </clipPath>
    <clipPath id="clippath-1">
      <rect x="798.26" y="6.05" width="201.74" height="132.24" style="fill: none;"/>
    </clipPath>
  </defs>
  <g id="tiger.psd">
    <g style="clip-path: url(#clippath);">
      <image id="Layer_8__x2B__Color_Balance_1__x2B__Levels_1__x2B__Curves_1__x2B__Hue_x2F_Saturation_1" width="1622" height="1007" transform="translate(6.26 12.9) scale(.12)" xlink:href="logo_tora-1.png"/>
      <image id="Layer_2" width="128" height="16" transform="translate(20.8 30.87) scale(.12)" xlink:href="logo_tora-2.png"/>
    </g>
  </g>
  <g>
    <path d="M209.16,35.26c4.64,27.28,7.03,42.06,8.16,51.48h.56c1.55-10.13,2.95-21.94,9.14-51.48h25.32c5.63,28.97,7.59,41.78,8.58,51.34h.42c1.13-7.74,3.09-22.5,8.86-51.34h26.86l-21.1,73.7h-29.68c-4.08-22.22-6.19-34.88-7.59-45.71h-.42c-.99,9.28-3.8,24.05-8.3,45.71h-29.54l-20.39-73.7h29.12Z"/>
    <path d="M369.65,87.16c0,8.3.42,19.27.85,21.8h-25.32c-.56-1.55-.99-5.07-1.13-6.75-3.51,4.5-8.86,8.58-20.82,8.58-16.46,0-25.46-10.41-25.46-23.49,0-17.44,13.93-24.9,36.43-24.9h9v-4.08c0-4.78-1.69-8.16-8.3-8.16-6.19,0-7.73,2.81-8.44,7.59h-25.32c.99-12.38,8.3-24.47,34.46-24.33,24.19.14,34.04,9.43,34.04,27.14v26.58h0ZM343.2,76.19h-6.05c-9.43,0-12.52,3.37-12.52,8.86,0,4.22,2.53,7.73,8.02,7.73,9.29,0,10.55-6.33,10.55-14.35v-2.25h0Z"/>
    <path d="M377.11,35.26h10.55v-19.13h27.14v19.13h12.94v18.43h-12.94v31.64c0,4.64,1.41,6.33,7.17,6.33,1.13,0,2.39,0,3.94-.14v16.88c-4.36,1.41-11.53,1.69-16.03,1.69-17.44,0-22.36-8.44-22.36-22.36v-34.04h-10.41v-18.43h0Z"/>
    <path d="M506.92,83.37c-2.25,13.36-10.83,27.42-36.29,27.42s-37.27-17.02-37.27-37.98c0-22.22,13.79-39.38,38.26-39.38,27.85,0,34.88,18.71,35.3,27.71h-26.16c-.7-5.21-2.95-9.29-9-9.29-6.89,0-10.41,6.47-10.41,19.97,0,15.19,3.8,20.82,10.27,20.82,5.63,0,8.02-4.36,9.29-9.29h26.02,0Z"/>
    <path d="M544.48,7.13v35.86c3.66-4.5,9.85-9.57,20.82-9.57,15.19,0,24.33,9.57,24.33,27.85v47.68h-27.28v-44.44c0-7.31-2.39-10.97-8.44-10.97-8.3,0-9.43,6.47-9.43,15.47v39.94h-27.42V7.13h27.42Z"/>
    <path d="M604.12,26.12V7.13h27.42v18.99h-27.42ZM604.12,35.26h27.42v73.7h-27.42s0-73.7,0-73.7Z"/>
    <path d="M646.31,54.39c0-6.47,0-13.36-.14-19.13h26.72c.42,1.83.7,5.91.85,8.16,2.81-4.22,8.86-9.99,20.96-9.99,14.77,0,24.05,9.99,24.05,27.99v47.54h-27.28v-44.3c0-7.17-2.11-11.11-8.44-11.11-5.77,0-9.28,2.95-9.28,13.36v42.06h-27.42v-54.58h-.01Z"/>
    <path d="M806.66,97.99c0,24.05-8.44,39.38-39.52,39.38s-34.88-15.89-35.58-24.19h27c.99,3.94,3.37,6.61,9.57,6.61,9.57,0,11.53-5.63,11.53-17.73v-3.94c-3.8,5.63-9.43,9.29-19.83,9.29-19.41,0-29.96-15.75-29.96-35.3,0-22.92,13.22-38.68,31.64-38.68,11.81,0,17.02,5.21,18.15,8.58.14-1.83.56-5.49.7-6.75h26.58c-.14,5.63-.28,12.52-.28,21.1v41.63h0ZM769.1,88.43c9.29,0,11.39-6.89,11.39-17.87,0-11.53-1.27-18.29-10.97-18.29-6.33,0-11.53,5.07-11.53,18.57,0,11.11,4.22,17.58,11.11,17.58h0Z"/>
  </g>
  <g id="tiger.psd1" data-name="tiger.psd">
    <g style="clip-path: url(#clippath-1);">
      <image id="Layer_8__x2B__Color_Balance_1__x2B__Levels_1__x2B__Curves_1__x2B__Hue_x2F_Saturation_11" data-name="Layer_8__x2B__Color_Balance_1__x2B__Levels_1__x2B__Curves_1__x2B__Hue_x2F_Saturation_1" width="1622" height="1007" transform="translate(804.53 12.9) scale(.12)" xlink:href="logo_tora-3.png"/>
      <image id="Layer_21" data-name="Layer_2" width="128" height="16" transform="translate(819.06 30.87) scale(.12)" xlink:href="logo_tora-4.png"/>
    </g>
  </g>
</svg>